<svg width="469" height="482" viewBox="0 0 469 482" fill="none" xmlns="http://www.w3.org/2000/svg">
<g style="mix-blend-mode:soft-light">
<mask id="path-1-inside-1_3_20" fill="white">
<path d="M256.88 173L264.41 195.974C262.333 195.708 260.216 195.571 258.068 195.571C255.05 195.571 252.094 195.841 249.225 196.359L256.88 173ZM258.068 199.533C260.699 199.533 263.279 199.757 265.79 200.186L267.23 204.578L260.3 209.902C259.562 209.857 258.817 209.835 258.068 209.835C256.045 209.835 254.06 210 252.127 210.317L246.019 206.14L247.803 200.697C251.104 199.935 254.539 199.533 258.068 199.533ZM265.812 210.661L268.537 208.568L269.56 211.688C268.339 211.281 267.087 210.938 265.812 210.661ZM274.381 213.69L271.864 206.012L275.69 203.073C281.206 205.391 286.179 208.766 290.361 212.946L288.412 219.422H282.673C280.2 217.149 277.411 215.214 274.381 213.69ZM261.497 213.976C264.9 214.334 268.145 215.219 271.152 216.547L272.946 222.021L273.393 223.384H274.826H281.082C282.762 225.076 284.257 226.953 285.534 228.981L283.71 235.042L283.291 236.431L284.488 237.249L290.102 241.089C290.373 242.781 290.515 244.518 290.515 246.287C290.515 247.41 290.458 248.519 290.346 249.613L284.762 253.636L283.586 254.483L284.037 255.862L286.205 262.477C285.132 264.344 283.879 266.093 282.47 267.701L275.22 267.925L273.798 267.969L273.387 269.334L271.406 275.914C268.866 277.062 266.153 277.892 263.316 278.354L258.036 274.551L256.88 273.719L255.725 274.551L250.948 277.993C248.166 277.369 245.519 276.388 243.058 275.099L241.396 270.354L240.916 268.985L239.468 269.03L235.03 269.167C232.318 266.429 230.089 263.21 228.483 259.649L229.724 255.862L230.175 254.483L228.999 253.636L226.036 251.502C225.762 249.804 225.62 248.062 225.62 246.287C225.62 244.57 225.753 242.884 226.01 241.239L228.961 238.972L230.097 238.099L229.623 236.745L228.372 233.173C229.991 229.503 232.268 226.19 235.053 223.384H238.935H240.368L240.815 222.021L242.141 217.973C244.945 216.389 248.007 215.21 251.249 214.515L255.116 217.16L256.299 217.969L257.436 217.096L261.497 213.976ZM276.241 219.367C276.268 219.385 276.294 219.404 276.321 219.422H276.259L276.241 219.367ZM286.989 224.146C286.793 223.889 286.594 223.635 286.39 223.384H287.219L286.989 224.146ZM289.826 228.454L291.352 223.384H298.206C300.989 228.436 302.865 234.07 303.609 240.06L299.715 242.865L293.692 238.746C292.922 235.083 291.603 231.622 289.826 228.454ZM307.228 237.454C306.395 232.478 304.839 227.75 302.672 223.384H326.761L307.228 237.454ZM303.19 245.243L303.954 244.693C303.962 245.053 303.967 245.413 303.969 245.775L303.19 245.243ZM299.774 247.704L303.752 250.425C303.175 256.425 301.467 262.088 298.845 267.196L291.985 267.407L290.498 262.866C292.237 259.461 293.458 255.745 294.055 251.823L299.774 247.704ZM303.313 267.058C305.336 262.66 306.747 257.92 307.439 252.947L327 266.325L303.313 267.058ZM293.272 271.332L296.511 271.231C295.808 272.316 295.062 273.37 294.274 274.389L293.272 271.332ZM289.149 271.459L291.263 277.908C287.209 282.193 282.351 285.694 276.934 288.164L272.757 285.155L274.693 278.725C278.263 276.886 281.49 274.474 284.253 271.61L289.149 271.459ZM280.59 290.797C285.035 288.522 289.095 285.594 292.649 282.139L300.09 304.843L280.59 290.797ZM271.549 289.166L272.557 289.891C272.108 290.042 271.656 290.186 271.201 290.323L271.549 289.166ZM268.153 286.72L266.738 291.423C263.93 291.965 261.031 292.249 258.068 292.249C254.868 292.249 251.745 291.918 248.729 291.288L246.822 285.845L251.865 282.212C253.881 282.559 255.953 282.739 258.068 282.739C259.496 282.739 260.905 282.657 262.291 282.497L268.153 286.72ZM250.237 295.594C252.788 296 255.403 296.211 258.068 296.211C260.58 296.211 263.049 296.023 265.461 295.662L258.436 319L250.237 295.594ZM243.474 288.256L244.107 290.066C243.394 289.836 242.688 289.588 241.991 289.325L243.474 288.256ZM242.108 284.359L237.773 287.482C232.146 284.676 227.169 280.739 223.135 275.965L223.952 273.473L233.491 273.179C235.422 274.95 237.545 276.515 239.825 277.839L242.108 284.359ZM221.708 280.321C225.313 284.198 229.52 287.499 234.179 290.07L213.671 304.843L221.708 280.321ZM221.057 269.599L218.658 269.673C215.454 264.269 213.309 258.151 212.512 251.608L215.849 249.045L222.435 253.789C222.871 255.873 223.484 257.893 224.259 259.83L221.057 269.599ZM229.856 269.327L225.264 269.469L226.761 264.901C227.684 266.455 228.719 267.933 229.856 269.327ZM221.663 246.287C221.663 246.995 221.683 247.698 221.723 248.395L219.128 246.526L221.704 244.547C221.677 245.124 221.663 245.704 221.663 246.287ZM222.385 239.03L215.773 244.109L212.356 241.648C212.947 235.065 214.901 228.881 217.929 223.384H220.75L224.137 233.053C223.39 234.972 222.8 236.969 222.385 239.03ZM213.463 223.384C211.073 228.199 209.427 233.454 208.674 238.996L187 223.384H213.463ZM223.555 219.422L222.543 216.532C226.482 211.676 231.377 207.644 236.938 204.727L241.333 207.733L238.844 215.325C236.923 216.524 235.121 217.897 233.462 219.422H223.555ZM226.563 228.009L224.943 223.384H229.745C228.571 224.838 227.506 226.384 226.563 228.009ZM246.941 211.569C245.894 211.905 244.868 212.287 243.865 212.713L244.735 210.06L246.941 211.569ZM243.206 202.017L242.617 203.813L241.126 202.793C241.811 202.518 242.505 202.259 243.206 202.017ZM221.028 212.206L212.57 188.06L233.276 202.222C228.683 204.884 224.551 208.263 221.028 212.206ZM214.193 269.811L187.756 270.628L208.915 254.372C209.84 259.873 211.65 265.071 214.193 269.811ZM212.177 246.873C212.173 246.713 212.171 246.554 212.169 246.394L212.494 246.629L212.177 246.873ZM245.457 281.948L244.869 280.27C245.511 280.52 246.161 280.752 246.819 280.966L245.457 281.948ZM257.107 278.763C256.963 278.759 256.819 278.754 256.675 278.748L256.88 278.6L257.107 278.763ZM269.36 282.708L267.637 281.467C268.418 281.254 269.189 281.017 269.949 280.754L269.36 282.708ZM278.162 271.799C277.584 272.255 276.991 272.693 276.383 273.11L276.765 271.842L278.162 271.799ZM287.863 267.535L287.646 267.542C287.697 267.471 287.747 267.402 287.796 267.331L287.863 267.535ZM289.256 255.28C289.07 255.928 288.864 256.567 288.639 257.198L288.248 256.005L289.256 255.28ZM296.298 245.327L294.47 246.643C294.471 246.525 294.472 246.406 294.472 246.287C294.472 245.529 294.449 244.777 294.403 244.031L296.298 245.327ZM270.557 202.022L270.285 201.193C270.613 201.285 270.94 201.38 271.265 201.478L270.557 202.022ZM291.642 208.69C287.975 205.316 283.806 202.486 279.261 200.329L298.641 185.441L291.642 208.69ZM293.462 216.372C294.267 217.356 295.033 218.373 295.756 219.422H292.544L293.462 216.372ZM288.138 234.059C288.3 234.456 288.453 234.858 288.599 235.263L287.916 234.796L288.138 234.059Z"/>
</mask>
<path d="M256.88 173L264.41 195.974C262.333 195.708 260.216 195.571 258.068 195.571C255.05 195.571 252.094 195.841 249.225 196.359L256.88 173ZM258.068 199.533C260.699 199.533 263.279 199.757 265.79 200.186L267.23 204.578L260.3 209.902C259.562 209.857 258.817 209.835 258.068 209.835C256.045 209.835 254.06 210 252.127 210.317L246.019 206.14L247.803 200.697C251.104 199.935 254.539 199.533 258.068 199.533ZM265.812 210.661L268.537 208.568L269.56 211.688C268.339 211.281 267.087 210.938 265.812 210.661ZM274.381 213.69L271.864 206.012L275.69 203.073C281.206 205.391 286.179 208.766 290.361 212.946L288.412 219.422H282.673C280.2 217.149 277.411 215.214 274.381 213.69ZM261.497 213.976C264.9 214.334 268.145 215.219 271.152 216.547L272.946 222.021L273.393 223.384H274.826H281.082C282.762 225.076 284.257 226.953 285.534 228.981L283.71 235.042L283.291 236.431L284.488 237.249L290.102 241.089C290.373 242.781 290.515 244.518 290.515 246.287C290.515 247.41 290.458 248.519 290.346 249.613L284.762 253.636L283.586 254.483L284.037 255.862L286.205 262.477C285.132 264.344 283.879 266.093 282.47 267.701L275.22 267.925L273.798 267.969L273.387 269.334L271.406 275.914C268.866 277.062 266.153 277.892 263.316 278.354L258.036 274.551L256.88 273.719L255.725 274.551L250.948 277.993C248.166 277.369 245.519 276.388 243.058 275.099L241.396 270.354L240.916 268.985L239.468 269.03L235.03 269.167C232.318 266.429 230.089 263.21 228.483 259.649L229.724 255.862L230.175 254.483L228.999 253.636L226.036 251.502C225.762 249.804 225.62 248.062 225.62 246.287C225.62 244.57 225.753 242.884 226.01 241.239L228.961 238.972L230.097 238.099L229.623 236.745L228.372 233.173C229.991 229.503 232.268 226.19 235.053 223.384H238.935H240.368L240.815 222.021L242.141 217.973C244.945 216.389 248.007 215.21 251.249 214.515L255.116 217.16L256.299 217.969L257.436 217.096L261.497 213.976ZM276.241 219.367C276.268 219.385 276.294 219.404 276.321 219.422H276.259L276.241 219.367ZM286.989 224.146C286.793 223.889 286.594 223.635 286.39 223.384H287.219L286.989 224.146ZM289.826 228.454L291.352 223.384H298.206C300.989 228.436 302.865 234.07 303.609 240.06L299.715 242.865L293.692 238.746C292.922 235.083 291.603 231.622 289.826 228.454ZM307.228 237.454C306.395 232.478 304.839 227.75 302.672 223.384H326.761L307.228 237.454ZM303.19 245.243L303.954 244.693C303.962 245.053 303.967 245.413 303.969 245.775L303.19 245.243ZM299.774 247.704L303.752 250.425C303.175 256.425 301.467 262.088 298.845 267.196L291.985 267.407L290.498 262.866C292.237 259.461 293.458 255.745 294.055 251.823L299.774 247.704ZM303.313 267.058C305.336 262.66 306.747 257.92 307.439 252.947L327 266.325L303.313 267.058ZM293.272 271.332L296.511 271.231C295.808 272.316 295.062 273.37 294.274 274.389L293.272 271.332ZM289.149 271.459L291.263 277.908C287.209 282.193 282.351 285.694 276.934 288.164L272.757 285.155L274.693 278.725C278.263 276.886 281.49 274.474 284.253 271.61L289.149 271.459ZM280.59 290.797C285.035 288.522 289.095 285.594 292.649 282.139L300.09 304.843L280.59 290.797ZM271.549 289.166L272.557 289.891C272.108 290.042 271.656 290.186 271.201 290.323L271.549 289.166ZM268.153 286.72L266.738 291.423C263.93 291.965 261.031 292.249 258.068 292.249C254.868 292.249 251.745 291.918 248.729 291.288L246.822 285.845L251.865 282.212C253.881 282.559 255.953 282.739 258.068 282.739C259.496 282.739 260.905 282.657 262.291 282.497L268.153 286.72ZM250.237 295.594C252.788 296 255.403 296.211 258.068 296.211C260.58 296.211 263.049 296.023 265.461 295.662L258.436 319L250.237 295.594ZM243.474 288.256L244.107 290.066C243.394 289.836 242.688 289.588 241.991 289.325L243.474 288.256ZM242.108 284.359L237.773 287.482C232.146 284.676 227.169 280.739 223.135 275.965L223.952 273.473L233.491 273.179C235.422 274.95 237.545 276.515 239.825 277.839L242.108 284.359ZM221.708 280.321C225.313 284.198 229.52 287.499 234.179 290.07L213.671 304.843L221.708 280.321ZM221.057 269.599L218.658 269.673C215.454 264.269 213.309 258.151 212.512 251.608L215.849 249.045L222.435 253.789C222.871 255.873 223.484 257.893 224.259 259.83L221.057 269.599ZM229.856 269.327L225.264 269.469L226.761 264.901C227.684 266.455 228.719 267.933 229.856 269.327ZM221.663 246.287C221.663 246.995 221.683 247.698 221.723 248.395L219.128 246.526L221.704 244.547C221.677 245.124 221.663 245.704 221.663 246.287ZM222.385 239.03L215.773 244.109L212.356 241.648C212.947 235.065 214.901 228.881 217.929 223.384H220.75L224.137 233.053C223.39 234.972 222.8 236.969 222.385 239.03ZM213.463 223.384C211.073 228.199 209.427 233.454 208.674 238.996L187 223.384H213.463ZM223.555 219.422L222.543 216.532C226.482 211.676 231.377 207.644 236.938 204.727L241.333 207.733L238.844 215.325C236.923 216.524 235.121 217.897 233.462 219.422H223.555ZM226.563 228.009L224.943 223.384H229.745C228.571 224.838 227.506 226.384 226.563 228.009ZM246.941 211.569C245.894 211.905 244.868 212.287 243.865 212.713L244.735 210.06L246.941 211.569ZM243.206 202.017L242.617 203.813L241.126 202.793C241.811 202.518 242.505 202.259 243.206 202.017ZM221.028 212.206L212.57 188.06L233.276 202.222C228.683 204.884 224.551 208.263 221.028 212.206ZM214.193 269.811L187.756 270.628L208.915 254.372C209.84 259.873 211.65 265.071 214.193 269.811ZM212.177 246.873C212.173 246.713 212.171 246.554 212.169 246.394L212.494 246.629L212.177 246.873ZM245.457 281.948L244.869 280.27C245.511 280.52 246.161 280.752 246.819 280.966L245.457 281.948ZM257.107 278.763C256.963 278.759 256.819 278.754 256.675 278.748L256.88 278.6L257.107 278.763ZM269.36 282.708L267.637 281.467C268.418 281.254 269.189 281.017 269.949 280.754L269.36 282.708ZM278.162 271.799C277.584 272.255 276.991 272.693 276.383 273.11L276.765 271.842L278.162 271.799ZM287.863 267.535L287.646 267.542C287.697 267.471 287.747 267.402 287.796 267.331L287.863 267.535ZM289.256 255.28C289.07 255.928 288.864 256.567 288.639 257.198L288.248 256.005L289.256 255.28ZM296.298 245.327L294.47 246.643C294.471 246.525 294.472 246.406 294.472 246.287C294.472 245.529 294.449 244.777 294.403 244.031L296.298 245.327ZM270.557 202.022L270.285 201.193C270.613 201.285 270.94 201.38 271.265 201.478L270.557 202.022ZM291.642 208.69C287.975 205.316 283.806 202.486 279.261 200.329L298.641 185.441L291.642 208.69ZM293.462 216.372C294.267 217.356 295.033 218.373 295.756 219.422H292.544L293.462 216.372ZM288.138 234.059C288.3 234.456 288.453 234.858 288.599 235.263L287.916 234.796L288.138 234.059Z" stroke="#B49852" stroke-width="10" mask="url(#path-1-inside-1_3_20)"/>
</g>
<g style="mix-blend-mode:soft-light">
<mask id="path-2-inside-2_3_20" fill="white">
<path d="M401.385 0L408.645 21.5575C406.642 21.3079 404.602 21.1792 402.529 21.1792C399.619 21.1792 396.77 21.4331 394.002 21.9194L401.385 0ZM402.529 24.8972C405.067 24.8972 407.555 25.1072 409.976 25.5104L411.364 29.6316L404.682 34.6272C403.97 34.5852 403.252 34.5639 402.529 34.5639C400.579 34.5639 398.665 34.719 396.801 35.0171L390.912 31.097L392.632 25.9892C395.814 25.2746 399.127 24.8972 402.529 24.8972ZM409.998 35.3396L412.625 33.3752L413.611 36.3033C412.434 35.9217 411.227 35.5992 409.998 35.3396ZM418.26 38.1821L415.833 30.9768L419.522 28.219C424.841 30.3946 429.637 33.5609 433.669 37.484L431.79 43.5602H426.256C423.871 41.4274 421.182 39.6118 418.26 38.1821ZM405.836 38.4502C409.118 38.7861 412.247 39.6161 415.147 40.8624L416.877 45.9988L417.308 47.2781H418.69H424.722C426.342 48.8663 427.783 50.6274 429.015 52.5304L427.256 58.2171L426.852 59.5207L428.006 60.2887L433.42 63.8917C433.681 65.4798 433.818 67.109 433.818 68.7693C433.818 69.8229 433.763 70.864 433.656 71.8901L428.27 75.6654L427.136 76.4603L427.572 77.7541L429.662 83.9616C428.627 85.7128 427.419 87.3539 426.06 88.8634L419.069 89.0739L417.698 89.1148L417.302 90.3952L415.391 96.57C412.943 97.6475 410.326 98.426 407.59 98.8596L402.499 95.2911L401.385 94.5103L400.271 95.2911L395.664 98.5205C392.981 97.9353 390.429 97.0147 388.056 95.8056L386.453 91.353L385.991 90.068L384.594 90.1104L380.315 90.2391C377.7 87.67 375.55 84.6487 374.001 81.3078L375.198 77.7541L375.634 76.4603L374.499 75.6654L371.642 73.6629C371.378 72.0693 371.241 70.4349 371.241 68.7693C371.241 67.1582 371.369 65.5764 371.616 64.0328L374.462 61.9054L375.558 61.0859L375.101 59.8153L373.894 56.4635C375.455 53.0203 377.651 49.9115 380.337 47.2781H384.08H385.462L385.893 45.9988L387.172 42.201C389.875 40.7141 392.828 39.6076 395.955 38.9561L399.683 41.4378L400.824 42.1973L401.921 41.3776L405.836 38.4502ZM420.054 43.5091C420.08 43.5261 420.105 43.5431 420.131 43.5602H420.071L420.054 43.5091ZM430.418 47.9932C430.229 47.7523 430.037 47.5139 429.841 47.2781H430.64L430.418 47.9932ZM433.153 52.0357L434.625 47.2781H441.234C443.918 52.0191 445.727 57.3054 446.445 62.9264L442.689 65.5587L436.881 61.6932C436.14 58.2557 434.867 55.0082 433.153 52.0357ZM449.934 60.4806C449.131 55.8118 447.631 51.3752 445.541 47.2781H468.77L449.934 60.4806ZM446.04 67.7894L446.777 67.2736C446.785 67.611 446.79 67.9494 446.791 68.2887L446.04 67.7894ZM442.746 70.0988L446.582 72.6523C446.026 78.2821 444.379 83.5965 441.851 88.389L435.236 88.5875L433.801 84.326C435.479 81.1308 436.656 77.6441 437.232 73.964L442.746 70.0988ZM446.159 88.2596C448.109 84.1334 449.471 79.6852 450.138 75.0184L469 87.5725L446.159 88.2596ZM436.477 92.2706L439.6 92.1761C438.922 93.1941 438.202 94.1831 437.443 95.1394L436.477 92.2706ZM432.501 92.3895L434.539 98.4409C430.63 102.462 425.946 105.747 420.722 108.065L416.694 105.241L418.561 99.2076C422.003 97.4824 425.115 95.2189 427.779 92.5316L432.501 92.3895ZM424.248 110.535C428.533 108.401 432.449 105.653 435.876 102.412L443.051 123.716L424.248 110.535ZM415.53 109.005L416.501 109.686C416.068 109.827 415.633 109.962 415.194 110.091L415.53 109.005ZM412.255 106.71L410.89 111.123C408.182 111.632 405.387 111.898 402.529 111.898C399.444 111.898 396.432 111.588 393.524 110.997L391.686 105.889L396.548 102.48C398.492 102.805 400.49 102.975 402.529 102.975C403.907 102.975 405.265 102.897 406.602 102.747L412.255 106.71ZM394.979 115.037C397.438 115.418 399.96 115.616 402.529 115.616C404.952 115.616 407.333 115.439 409.659 115.1L402.885 137L394.979 115.037ZM388.457 108.152L389.068 109.849C388.38 109.633 387.699 109.401 387.027 109.155L388.457 108.152ZM387.14 104.495L382.96 107.425C377.533 104.792 372.735 101.098 368.845 96.6176L369.632 94.2798L378.83 94.0031C380.693 95.6651 382.74 97.1337 384.938 98.3762L387.14 104.495ZM367.468 100.705C370.945 104.344 375.002 107.441 379.494 109.854L359.718 123.716L367.468 100.705ZM366.841 90.6443L364.528 90.7135C361.438 85.6429 359.369 79.9016 358.601 73.7625L361.819 71.357L368.169 75.8089C368.59 77.7645 369.181 79.66 369.928 81.4773L366.841 90.6443ZM375.325 90.3893L370.898 90.5224L372.341 86.2363C373.231 87.6937 374.23 89.0813 375.325 90.3893ZM367.425 68.7693C367.425 69.4333 367.445 70.0929 367.483 70.7472L364.981 68.9938L367.465 67.1366C367.439 67.6776 367.425 68.2219 367.425 68.7693ZM368.121 61.9597L361.746 66.7259L358.451 64.4163C359.021 58.2389 360.904 52.4358 363.824 47.2781H366.544L369.81 56.3511C369.09 58.1515 368.522 60.026 368.121 61.9597ZM359.518 47.2781C357.214 51.7962 355.626 56.7274 354.9 61.9275L334 47.2781H359.518ZM369.25 43.5602L368.273 40.8482C372.072 36.2922 376.792 32.5082 382.154 29.7709L386.392 32.5916L383.993 39.7161C382.14 40.8408 380.403 42.129 378.802 43.5602H369.25ZM372.15 51.6183L370.588 47.2781H375.218C374.086 48.6423 373.059 50.0929 372.15 51.6183ZM391.8 36.1911C390.791 36.5064 389.802 36.8651 388.834 37.2647L389.673 34.775L391.8 36.1911ZM388.199 27.2284L387.631 28.9136L386.193 27.9566C386.854 27.6985 387.523 27.4556 388.199 27.2284ZM366.812 36.7894L358.656 14.1315L378.623 27.4207C374.194 29.9185 370.209 33.0888 366.812 36.7894ZM360.221 90.8429L334.729 91.6095L355.132 76.3562C356.025 81.5175 357.77 86.3954 360.221 90.8429ZM358.277 69.3188C358.274 69.1693 358.272 69.0199 358.27 68.8697L358.584 69.0898L358.277 69.3188ZM390.369 102.232L389.803 100.658C390.421 100.892 391.048 101.11 391.683 101.31L390.369 102.232ZM401.603 99.2432C401.464 99.2395 401.325 99.2351 401.187 99.2291L401.385 99.0901L401.603 99.2432ZM413.419 102.946L411.757 101.78C412.511 101.581 413.254 101.358 413.987 101.111L413.419 102.946ZM421.906 92.7085C421.349 93.1369 420.777 93.5473 420.191 93.9392L420.559 92.7487L421.906 92.7085ZM431.261 88.7073L431.052 88.714C431.101 88.6478 431.149 88.5823 431.196 88.5162L431.261 88.7073ZM432.604 77.2076C432.425 77.8158 432.226 78.4159 432.009 79.0078L431.632 77.8887L432.604 77.2076ZM439.394 67.8682L437.632 69.1031C437.633 68.9923 437.634 68.8808 437.634 68.7693C437.634 68.0583 437.612 67.3525 437.567 66.6523L439.394 67.8682ZM414.573 27.2332L414.311 26.4554C414.627 26.5411 414.942 26.6302 415.256 26.7225L414.573 27.2332ZM434.905 33.4898C431.368 30.3236 427.348 27.6687 422.966 25.6446L441.654 11.6738L434.905 33.4898ZM436.66 40.6988C437.436 41.6214 438.175 42.5759 438.872 43.5602H435.775L436.66 40.6988ZM431.526 57.295C431.682 57.668 431.83 58.0446 431.971 58.4248L431.312 57.9866L431.526 57.295Z"/>
</mask>
<path d="M401.385 0L408.645 21.5575C406.642 21.3079 404.602 21.1792 402.529 21.1792C399.619 21.1792 396.77 21.4331 394.002 21.9194L401.385 0ZM402.529 24.8972C405.067 24.8972 407.555 25.1072 409.976 25.5104L411.364 29.6316L404.682 34.6272C403.97 34.5852 403.252 34.5639 402.529 34.5639C400.579 34.5639 398.665 34.719 396.801 35.0171L390.912 31.097L392.632 25.9892C395.814 25.2746 399.127 24.8972 402.529 24.8972ZM409.998 35.3396L412.625 33.3752L413.611 36.3033C412.434 35.9217 411.227 35.5992 409.998 35.3396ZM418.26 38.1821L415.833 30.9768L419.522 28.219C424.841 30.3946 429.637 33.5609 433.669 37.484L431.79 43.5602H426.256C423.871 41.4274 421.182 39.6118 418.26 38.1821ZM405.836 38.4502C409.118 38.7861 412.247 39.6161 415.147 40.8624L416.877 45.9988L417.308 47.2781H418.69H424.722C426.342 48.8663 427.783 50.6274 429.015 52.5304L427.256 58.2171L426.852 59.5207L428.006 60.2887L433.42 63.8917C433.681 65.4798 433.818 67.109 433.818 68.7693C433.818 69.8229 433.763 70.864 433.656 71.8901L428.27 75.6654L427.136 76.4603L427.572 77.7541L429.662 83.9616C428.627 85.7128 427.419 87.3539 426.06 88.8634L419.069 89.0739L417.698 89.1148L417.302 90.3952L415.391 96.57C412.943 97.6475 410.326 98.426 407.59 98.8596L402.499 95.2911L401.385 94.5103L400.271 95.2911L395.664 98.5205C392.981 97.9353 390.429 97.0147 388.056 95.8056L386.453 91.353L385.991 90.068L384.594 90.1104L380.315 90.2391C377.7 87.67 375.55 84.6487 374.001 81.3078L375.198 77.7541L375.634 76.4603L374.499 75.6654L371.642 73.6629C371.378 72.0693 371.241 70.4349 371.241 68.7693C371.241 67.1582 371.369 65.5764 371.616 64.0328L374.462 61.9054L375.558 61.0859L375.101 59.8153L373.894 56.4635C375.455 53.0203 377.651 49.9115 380.337 47.2781H384.08H385.462L385.893 45.9988L387.172 42.201C389.875 40.7141 392.828 39.6076 395.955 38.9561L399.683 41.4378L400.824 42.1973L401.921 41.3776L405.836 38.4502ZM420.054 43.5091C420.08 43.5261 420.105 43.5431 420.131 43.5602H420.071L420.054 43.5091ZM430.418 47.9932C430.229 47.7523 430.037 47.5139 429.841 47.2781H430.64L430.418 47.9932ZM433.153 52.0357L434.625 47.2781H441.234C443.918 52.0191 445.727 57.3054 446.445 62.9264L442.689 65.5587L436.881 61.6932C436.14 58.2557 434.867 55.0082 433.153 52.0357ZM449.934 60.4806C449.131 55.8118 447.631 51.3752 445.541 47.2781H468.77L449.934 60.4806ZM446.04 67.7894L446.777 67.2736C446.785 67.611 446.79 67.9494 446.791 68.2887L446.04 67.7894ZM442.746 70.0988L446.582 72.6523C446.026 78.2821 444.379 83.5965 441.851 88.389L435.236 88.5875L433.801 84.326C435.479 81.1308 436.656 77.6441 437.232 73.964L442.746 70.0988ZM446.159 88.2596C448.109 84.1334 449.471 79.6852 450.138 75.0184L469 87.5725L446.159 88.2596ZM436.477 92.2706L439.6 92.1761C438.922 93.1941 438.202 94.1831 437.443 95.1394L436.477 92.2706ZM432.501 92.3895L434.539 98.4409C430.63 102.462 425.946 105.747 420.722 108.065L416.694 105.241L418.561 99.2076C422.003 97.4824 425.115 95.2189 427.779 92.5316L432.501 92.3895ZM424.248 110.535C428.533 108.401 432.449 105.653 435.876 102.412L443.051 123.716L424.248 110.535ZM415.53 109.005L416.501 109.686C416.068 109.827 415.633 109.962 415.194 110.091L415.53 109.005ZM412.255 106.71L410.89 111.123C408.182 111.632 405.387 111.898 402.529 111.898C399.444 111.898 396.432 111.588 393.524 110.997L391.686 105.889L396.548 102.48C398.492 102.805 400.49 102.975 402.529 102.975C403.907 102.975 405.265 102.897 406.602 102.747L412.255 106.71ZM394.979 115.037C397.438 115.418 399.96 115.616 402.529 115.616C404.952 115.616 407.333 115.439 409.659 115.1L402.885 137L394.979 115.037ZM388.457 108.152L389.068 109.849C388.38 109.633 387.699 109.401 387.027 109.155L388.457 108.152ZM387.14 104.495L382.96 107.425C377.533 104.792 372.735 101.098 368.845 96.6176L369.632 94.2798L378.83 94.0031C380.693 95.6651 382.74 97.1337 384.938 98.3762L387.14 104.495ZM367.468 100.705C370.945 104.344 375.002 107.441 379.494 109.854L359.718 123.716L367.468 100.705ZM366.841 90.6443L364.528 90.7135C361.438 85.6429 359.369 79.9016 358.601 73.7625L361.819 71.357L368.169 75.8089C368.59 77.7645 369.181 79.66 369.928 81.4773L366.841 90.6443ZM375.325 90.3893L370.898 90.5224L372.341 86.2363C373.231 87.6937 374.23 89.0813 375.325 90.3893ZM367.425 68.7693C367.425 69.4333 367.445 70.0929 367.483 70.7472L364.981 68.9938L367.465 67.1366C367.439 67.6776 367.425 68.2219 367.425 68.7693ZM368.121 61.9597L361.746 66.7259L358.451 64.4163C359.021 58.2389 360.904 52.4358 363.824 47.2781H366.544L369.81 56.3511C369.09 58.1515 368.522 60.026 368.121 61.9597ZM359.518 47.2781C357.214 51.7962 355.626 56.7274 354.9 61.9275L334 47.2781H359.518ZM369.25 43.5602L368.273 40.8482C372.072 36.2922 376.792 32.5082 382.154 29.7709L386.392 32.5916L383.993 39.7161C382.14 40.8408 380.403 42.129 378.802 43.5602H369.25ZM372.15 51.6183L370.588 47.2781H375.218C374.086 48.6423 373.059 50.0929 372.15 51.6183ZM391.8 36.1911C390.791 36.5064 389.802 36.8651 388.834 37.2647L389.673 34.775L391.8 36.1911ZM388.199 27.2284L387.631 28.9136L386.193 27.9566C386.854 27.6985 387.523 27.4556 388.199 27.2284ZM366.812 36.7894L358.656 14.1315L378.623 27.4207C374.194 29.9185 370.209 33.0888 366.812 36.7894ZM360.221 90.8429L334.729 91.6095L355.132 76.3562C356.025 81.5175 357.77 86.3954 360.221 90.8429ZM358.277 69.3188C358.274 69.1693 358.272 69.0199 358.27 68.8697L358.584 69.0898L358.277 69.3188ZM390.369 102.232L389.803 100.658C390.421 100.892 391.048 101.11 391.683 101.31L390.369 102.232ZM401.603 99.2432C401.464 99.2395 401.325 99.2351 401.187 99.2291L401.385 99.0901L401.603 99.2432ZM413.419 102.946L411.757 101.78C412.511 101.581 413.254 101.358 413.987 101.111L413.419 102.946ZM421.906 92.7085C421.349 93.1369 420.777 93.5473 420.191 93.9392L420.559 92.7487L421.906 92.7085ZM431.261 88.7073L431.052 88.714C431.101 88.6478 431.149 88.5823 431.196 88.5162L431.261 88.7073ZM432.604 77.2076C432.425 77.8158 432.226 78.4159 432.009 79.0078L431.632 77.8887L432.604 77.2076ZM439.394 67.8682L437.632 69.1031C437.633 68.9923 437.634 68.8808 437.634 68.7693C437.634 68.0583 437.612 67.3525 437.567 66.6523L439.394 67.8682ZM414.573 27.2332L414.311 26.4554C414.627 26.5411 414.942 26.6302 415.256 26.7225L414.573 27.2332ZM434.905 33.4898C431.368 30.3236 427.348 27.6687 422.966 25.6446L441.654 11.6738L434.905 33.4898ZM436.66 40.6988C437.436 41.6214 438.175 42.5759 438.872 43.5602H435.775L436.66 40.6988ZM431.526 57.295C431.682 57.668 431.83 58.0446 431.971 58.4248L431.312 57.9866L431.526 57.295Z" stroke="#B49852" stroke-width="10" mask="url(#path-2-inside-2_3_20)"/>
</g>
<g style="mix-blend-mode:soft-light">
<mask id="path-3-inside-3_3_20" fill="white">
<path d="M67.3847 345L74.6454 366.557C72.6422 366.308 70.6016 366.179 68.5294 366.179C65.6192 366.179 62.7697 366.433 60.0025 366.919L67.3847 345ZM68.5294 369.897C71.0671 369.897 73.5549 370.107 75.9763 370.51L77.3644 374.632L70.6817 379.627C69.9701 379.585 69.2523 379.564 68.5294 379.564C66.5788 379.564 64.6653 379.719 62.8013 380.017L56.9115 376.097L58.6318 370.989C61.8144 370.275 65.1273 369.897 68.5294 369.897ZM75.9977 380.34L78.6251 378.375L79.6111 381.303C78.4336 380.922 77.2271 380.599 75.9977 380.34ZM84.2601 383.182L81.8333 375.977L85.5223 373.219C90.8414 375.395 95.6369 378.561 99.6693 382.484L97.7897 388.56H92.2562C89.8714 386.427 87.1821 384.612 84.2601 383.182ZM71.8363 383.45C75.1178 383.786 78.2474 384.616 81.1465 385.862L82.8765 390.999L83.3077 392.278H84.6898H90.7215C92.3417 393.866 93.7832 395.627 95.0149 397.53L93.2559 403.217L92.8522 404.521L94.0061 405.289L99.4197 408.892C99.6815 410.48 99.8181 412.109 99.8181 413.769C99.8181 414.823 99.7631 415.864 99.6555 416.89L94.2701 420.665L93.1361 421.46L93.5718 422.754L95.6621 428.962C94.6273 430.713 93.4192 432.354 92.0601 433.863L85.069 434.074L83.6977 434.115L83.3016 435.395L81.3915 441.57C78.9426 442.647 76.3258 443.426 73.59 443.86L68.4988 440.291L67.3847 439.51L66.2706 440.291L61.6637 443.52C58.9815 442.935 56.4294 442.015 54.0562 440.806L52.4534 436.353L51.9909 435.068L50.5942 435.11L46.315 435.239C43.6995 432.67 41.5502 429.649 40.001 426.308L41.1978 422.754L41.6335 421.46L40.4992 420.665L37.6419 418.663C37.3781 417.069 37.241 415.435 37.241 413.769C37.241 412.158 37.3693 410.576 37.6163 409.033L40.462 406.905L41.5583 406.086L41.1009 404.815L39.8944 401.464C41.4552 398.02 43.6509 394.911 46.3369 392.278H50.08H51.4619L51.8928 390.999L53.1718 387.201C55.8753 385.714 58.8285 384.608 61.9547 383.956L65.6834 386.438L66.8244 387.197L67.9208 386.378L71.8363 383.45ZM86.0542 388.509C86.0802 388.526 86.1054 388.543 86.1313 388.56H86.071L86.0542 388.509ZM96.4183 392.993C96.2291 392.752 96.0368 392.514 95.8406 392.278H96.6396L96.4183 392.993ZM99.1534 397.036L100.625 392.278H107.234C109.918 397.019 111.727 402.305 112.445 407.926L108.689 410.559L102.881 406.693C102.14 403.256 100.867 400.008 99.1534 397.036ZM115.934 405.481C115.131 400.812 113.631 396.375 111.541 392.278H134.77L115.934 405.481ZM112.04 412.789L112.777 412.274C112.785 412.611 112.79 412.949 112.791 413.289L112.04 412.789ZM108.746 415.099L112.582 417.652C112.026 423.282 110.379 428.597 107.851 433.389L101.236 433.588L99.8013 429.326C101.479 426.131 102.656 422.644 103.232 418.964L108.746 415.099ZM112.159 433.26C114.109 429.133 115.471 424.685 116.138 420.018L135 432.573L112.159 433.26ZM102.477 437.271L105.6 437.176C104.922 438.194 104.202 439.183 103.443 440.139L102.477 437.271ZM98.5009 437.39L100.539 443.441C96.6305 447.462 91.9456 450.747 86.722 453.065L82.6942 450.241L84.5608 444.208C88.0033 442.482 91.1153 440.219 93.7794 437.532L98.5009 437.39ZM90.2476 455.535C94.5334 453.401 98.449 450.653 101.876 447.412L109.051 468.716L90.2476 455.535ZM81.5296 454.005L82.5011 454.686C82.0684 454.827 81.6326 454.962 81.1938 455.091L81.5296 454.005ZM78.255 451.71L76.8898 456.123C74.1822 456.632 71.3868 456.898 68.5294 456.898C65.4442 456.898 62.4322 456.588 59.5243 455.996L57.6856 450.889L62.5485 447.48C64.4922 447.805 66.4905 447.975 68.5294 447.975C69.9068 447.975 71.2655 447.897 72.6017 447.747L78.255 451.71ZM60.9787 460.037C63.4384 460.418 65.9603 460.616 68.5294 460.616C70.9518 460.616 73.3328 460.439 75.6588 460.1L68.8845 482L60.9787 460.037ZM54.4568 453.152L55.0676 454.849C54.3799 454.633 53.6994 454.401 53.0266 454.155L54.4568 453.152ZM53.1403 449.495L48.9595 452.425C43.5333 449.792 38.7345 446.098 34.8446 441.618L35.6321 439.28L44.8302 439.003C46.6927 440.665 48.7397 442.134 50.9379 443.376L53.1403 449.495ZM33.468 445.705C36.9445 449.344 41.0016 452.441 45.4944 454.854L25.7184 468.716L33.468 445.705ZM32.8407 435.644L30.5276 435.713C27.4379 430.643 25.369 424.902 24.601 418.763L27.8188 416.357L34.1695 420.809C34.5895 422.765 35.181 424.66 35.928 426.477L32.8407 435.644ZM41.3251 435.389L36.8977 435.522L38.3411 431.236C39.2313 432.694 40.2295 434.081 41.3251 435.389ZM33.4253 413.769C33.4253 414.433 33.4448 415.093 33.4831 415.747L30.9807 413.994L33.4646 412.137C33.4385 412.678 33.4253 413.222 33.4253 413.769ZM34.121 406.96L27.7456 411.726L24.4506 409.416C25.0207 403.239 26.9044 397.436 29.8244 392.278H32.5445L35.8104 401.351C35.0901 403.151 34.5219 405.026 34.121 406.96ZM25.5179 392.278C23.2136 396.796 21.6256 401.727 20.8998 406.927L0 392.278H25.5179ZM35.2497 388.56L34.2735 385.848C38.0718 381.292 42.7924 377.508 48.1541 374.771L52.3923 377.592L49.9928 384.716C48.1401 385.841 46.4029 387.129 44.8023 388.56H35.2497ZM38.1504 396.618L36.588 392.278H41.2179C40.0859 393.642 39.0593 395.093 38.1504 396.618ZM57.8003 381.191C56.7909 381.506 55.8015 381.865 54.8343 382.265L55.6728 379.775L57.8003 381.191ZM54.1986 372.228L53.631 373.914L52.1931 372.957C52.8539 372.698 53.5226 372.456 54.1986 372.228ZM32.8125 381.789L24.6564 359.132L44.6231 372.421C40.1943 374.918 36.2095 378.089 32.8125 381.789ZM26.2214 435.843L0.728891 436.61L21.1323 421.356C22.0246 426.517 23.77 431.395 26.2214 435.843ZM24.2774 414.319C24.2743 414.169 24.272 414.02 24.2703 413.87L24.5837 414.09L24.2774 414.319ZM56.3692 447.232L55.8026 445.658C56.421 445.892 57.048 446.11 57.6829 446.31L56.3692 447.232ZM67.6034 444.243C67.4643 444.24 67.3254 444.235 67.1867 444.229L67.3847 444.09L67.6034 444.243ZM79.4188 447.946L77.7575 446.78C78.5107 446.581 79.254 446.358 79.9866 446.111L79.4188 447.946ZM87.9063 437.709C87.3493 438.137 86.7769 438.547 86.1908 438.939L86.5587 437.749L87.9063 437.709ZM97.2608 433.707L97.0517 433.714C97.1006 433.648 97.1486 433.582 97.196 433.516L97.2608 433.707ZM98.6039 422.208C98.4246 422.816 98.2262 423.416 98.0095 424.008L97.6325 422.889L98.6039 422.208ZM105.394 412.868L103.632 414.103C103.633 413.992 103.634 413.881 103.634 413.769C103.634 413.058 103.612 412.353 103.567 411.652L105.394 412.868ZM80.5726 372.233L80.3109 371.455C80.6268 371.541 80.942 371.63 81.2557 371.723L80.5726 372.233ZM100.905 378.49C97.3684 375.324 93.3482 372.669 88.9663 370.645L107.654 356.674L100.905 378.49ZM102.66 385.699C103.436 386.621 104.175 387.576 104.872 388.56H101.775L102.66 385.699ZM97.5264 402.295C97.6821 402.668 97.8301 403.045 97.9705 403.425L97.312 402.987L97.5264 402.295Z"/>
</mask>
<path d="M67.3847 345L74.6454 366.557C72.6422 366.308 70.6016 366.179 68.5294 366.179C65.6192 366.179 62.7697 366.433 60.0025 366.919L67.3847 345ZM68.5294 369.897C71.0671 369.897 73.5549 370.107 75.9763 370.51L77.3644 374.632L70.6817 379.627C69.9701 379.585 69.2523 379.564 68.5294 379.564C66.5788 379.564 64.6653 379.719 62.8013 380.017L56.9115 376.097L58.6318 370.989C61.8144 370.275 65.1273 369.897 68.5294 369.897ZM75.9977 380.34L78.6251 378.375L79.6111 381.303C78.4336 380.922 77.2271 380.599 75.9977 380.34ZM84.2601 383.182L81.8333 375.977L85.5223 373.219C90.8414 375.395 95.6369 378.561 99.6693 382.484L97.7897 388.56H92.2562C89.8714 386.427 87.1821 384.612 84.2601 383.182ZM71.8363 383.45C75.1178 383.786 78.2474 384.616 81.1465 385.862L82.8765 390.999L83.3077 392.278H84.6898H90.7215C92.3417 393.866 93.7832 395.627 95.0149 397.53L93.2559 403.217L92.8522 404.521L94.0061 405.289L99.4197 408.892C99.6815 410.48 99.8181 412.109 99.8181 413.769C99.8181 414.823 99.7631 415.864 99.6555 416.89L94.2701 420.665L93.1361 421.46L93.5718 422.754L95.6621 428.962C94.6273 430.713 93.4192 432.354 92.0601 433.863L85.069 434.074L83.6977 434.115L83.3016 435.395L81.3915 441.57C78.9426 442.647 76.3258 443.426 73.59 443.86L68.4988 440.291L67.3847 439.51L66.2706 440.291L61.6637 443.52C58.9815 442.935 56.4294 442.015 54.0562 440.806L52.4534 436.353L51.9909 435.068L50.5942 435.11L46.315 435.239C43.6995 432.67 41.5502 429.649 40.001 426.308L41.1978 422.754L41.6335 421.46L40.4992 420.665L37.6419 418.663C37.3781 417.069 37.241 415.435 37.241 413.769C37.241 412.158 37.3693 410.576 37.6163 409.033L40.462 406.905L41.5583 406.086L41.1009 404.815L39.8944 401.464C41.4552 398.02 43.6509 394.911 46.3369 392.278H50.08H51.4619L51.8928 390.999L53.1718 387.201C55.8753 385.714 58.8285 384.608 61.9547 383.956L65.6834 386.438L66.8244 387.197L67.9208 386.378L71.8363 383.45ZM86.0542 388.509C86.0802 388.526 86.1054 388.543 86.1313 388.56H86.071L86.0542 388.509ZM96.4183 392.993C96.2291 392.752 96.0368 392.514 95.8406 392.278H96.6396L96.4183 392.993ZM99.1534 397.036L100.625 392.278H107.234C109.918 397.019 111.727 402.305 112.445 407.926L108.689 410.559L102.881 406.693C102.14 403.256 100.867 400.008 99.1534 397.036ZM115.934 405.481C115.131 400.812 113.631 396.375 111.541 392.278H134.77L115.934 405.481ZM112.04 412.789L112.777 412.274C112.785 412.611 112.79 412.949 112.791 413.289L112.04 412.789ZM108.746 415.099L112.582 417.652C112.026 423.282 110.379 428.597 107.851 433.389L101.236 433.588L99.8013 429.326C101.479 426.131 102.656 422.644 103.232 418.964L108.746 415.099ZM112.159 433.26C114.109 429.133 115.471 424.685 116.138 420.018L135 432.573L112.159 433.26ZM102.477 437.271L105.6 437.176C104.922 438.194 104.202 439.183 103.443 440.139L102.477 437.271ZM98.5009 437.39L100.539 443.441C96.6305 447.462 91.9456 450.747 86.722 453.065L82.6942 450.241L84.5608 444.208C88.0033 442.482 91.1153 440.219 93.7794 437.532L98.5009 437.39ZM90.2476 455.535C94.5334 453.401 98.449 450.653 101.876 447.412L109.051 468.716L90.2476 455.535ZM81.5296 454.005L82.5011 454.686C82.0684 454.827 81.6326 454.962 81.1938 455.091L81.5296 454.005ZM78.255 451.71L76.8898 456.123C74.1822 456.632 71.3868 456.898 68.5294 456.898C65.4442 456.898 62.4322 456.588 59.5243 455.996L57.6856 450.889L62.5485 447.48C64.4922 447.805 66.4905 447.975 68.5294 447.975C69.9068 447.975 71.2655 447.897 72.6017 447.747L78.255 451.71ZM60.9787 460.037C63.4384 460.418 65.9603 460.616 68.5294 460.616C70.9518 460.616 73.3328 460.439 75.6588 460.1L68.8845 482L60.9787 460.037ZM54.4568 453.152L55.0676 454.849C54.3799 454.633 53.6994 454.401 53.0266 454.155L54.4568 453.152ZM53.1403 449.495L48.9595 452.425C43.5333 449.792 38.7345 446.098 34.8446 441.618L35.6321 439.28L44.8302 439.003C46.6927 440.665 48.7397 442.134 50.9379 443.376L53.1403 449.495ZM33.468 445.705C36.9445 449.344 41.0016 452.441 45.4944 454.854L25.7184 468.716L33.468 445.705ZM32.8407 435.644L30.5276 435.713C27.4379 430.643 25.369 424.902 24.601 418.763L27.8188 416.357L34.1695 420.809C34.5895 422.765 35.181 424.66 35.928 426.477L32.8407 435.644ZM41.3251 435.389L36.8977 435.522L38.3411 431.236C39.2313 432.694 40.2295 434.081 41.3251 435.389ZM33.4253 413.769C33.4253 414.433 33.4448 415.093 33.4831 415.747L30.9807 413.994L33.4646 412.137C33.4385 412.678 33.4253 413.222 33.4253 413.769ZM34.121 406.96L27.7456 411.726L24.4506 409.416C25.0207 403.239 26.9044 397.436 29.8244 392.278H32.5445L35.8104 401.351C35.0901 403.151 34.5219 405.026 34.121 406.96ZM25.5179 392.278C23.2136 396.796 21.6256 401.727 20.8998 406.927L0 392.278H25.5179ZM35.2497 388.56L34.2735 385.848C38.0718 381.292 42.7924 377.508 48.1541 374.771L52.3923 377.592L49.9928 384.716C48.1401 385.841 46.4029 387.129 44.8023 388.56H35.2497ZM38.1504 396.618L36.588 392.278H41.2179C40.0859 393.642 39.0593 395.093 38.1504 396.618ZM57.8003 381.191C56.7909 381.506 55.8015 381.865 54.8343 382.265L55.6728 379.775L57.8003 381.191ZM54.1986 372.228L53.631 373.914L52.1931 372.957C52.8539 372.698 53.5226 372.456 54.1986 372.228ZM32.8125 381.789L24.6564 359.132L44.6231 372.421C40.1943 374.918 36.2095 378.089 32.8125 381.789ZM26.2214 435.843L0.728891 436.61L21.1323 421.356C22.0246 426.517 23.77 431.395 26.2214 435.843ZM24.2774 414.319C24.2743 414.169 24.272 414.02 24.2703 413.87L24.5837 414.09L24.2774 414.319ZM56.3692 447.232L55.8026 445.658C56.421 445.892 57.048 446.11 57.6829 446.31L56.3692 447.232ZM67.6034 444.243C67.4643 444.24 67.3254 444.235 67.1867 444.229L67.3847 444.09L67.6034 444.243ZM79.4188 447.946L77.7575 446.78C78.5107 446.581 79.254 446.358 79.9866 446.111L79.4188 447.946ZM87.9063 437.709C87.3493 438.137 86.7769 438.547 86.1908 438.939L86.5587 437.749L87.9063 437.709ZM97.2608 433.707L97.0517 433.714C97.1006 433.648 97.1486 433.582 97.196 433.516L97.2608 433.707ZM98.6039 422.208C98.4246 422.816 98.2262 423.416 98.0095 424.008L97.6325 422.889L98.6039 422.208ZM105.394 412.868L103.632 414.103C103.633 413.992 103.634 413.881 103.634 413.769C103.634 413.058 103.612 412.353 103.567 411.652L105.394 412.868ZM80.5726 372.233L80.3109 371.455C80.6268 371.541 80.942 371.63 81.2557 371.723L80.5726 372.233ZM100.905 378.49C97.3684 375.324 93.3482 372.669 88.9663 370.645L107.654 356.674L100.905 378.49ZM102.66 385.699C103.436 386.621 104.175 387.576 104.872 388.56H101.775L102.66 385.699ZM97.5264 402.295C97.6821 402.668 97.8301 403.045 97.9705 403.425L97.312 402.987L97.5264 402.295Z" stroke="#B49852" stroke-width="10" mask="url(#path-3-inside-3_3_20)"/>
</g>
<path d="M54.0703 426.21C61.1252 433.727 73.0809 434.258 80.7741 427.395C88.4673 420.532 88.9846 408.875 81.9297 401.358C74.8748 393.84 62.9191 393.31 55.2259 400.173C47.5327 407.035 47.0154 418.693 54.0703 426.21ZM242.157 258.426C249.212 265.943 261.168 266.474 268.861 259.611C276.554 252.749 277.071 241.091 270.016 233.574C262.961 226.057 251.006 225.526 243.313 232.389C235.619 239.251 235.102 250.909 242.157 258.426ZM70.3951 416.336L258.482 248.552L253.691 243.448L65.6049 411.232L70.3951 416.336Z" fill="#FFEBC6"/>
<path d="M389.363 87.1053C397.45 93.5002 409.35 92.2598 415.944 84.3348C422.537 76.4098 421.327 64.8012 413.241 58.4063C405.155 52.0114 393.254 53.2518 386.661 61.1769C380.067 69.1019 381.277 80.7105 389.363 87.1053ZM260.127 247.908L404.047 74.9269L398.557 70.5848L254.636 243.565L260.127 247.908Z" fill="#FFEBC6"/>
</svg>
